{
  "accessors": [
    {
      "bufferView": 1,
      "componentType": 5126,
      "count": 1253,
      "max": [
        61.0,
        -31.20509910583496,
        -40.60419845581055
      ],
      "min": [
        44.0,
        -42.0,
        -45.0
      ],
      "type": "VEC3"
    },
    {
      "bufferView": 1,
      "byteOffset": 15036,
      "componentType": 5126,
      "count": 1253,
      "max": [
        1.0,
        0.9939702153205872,
        0.9632452726364136
      ],
      "min": [
        -1.0,
        -1.0,
        -1.0
      ],
      "type": "VEC3"
    },
    {
      "bufferView": 0,
      "componentType": 5125,
      "count": 6039,
      "type": "SCALAR"
    },
    {
      "bufferView": 1,
      "byteOffset": 30072,
      "componentType": 5126,
      "count": 324,
      "max": [
        60.34000015258789,
        -16.0,
        -48.900001525878906
      ],
      "min": [
        45.0,
        -21.90999984741211,
        -49.0
      ],
      "type": "VEC3"
    },
    {
      "bufferView": 1,
      "byteOffset": 33960,
      "componentType": 5126,
      "count": 324,
      "max": [
        0.9999971985816956,
        0.9998977184295654,
        1.0
      ],
      "min": [
        -0.9997830390930176,
        -0.9996950030326843,
        -1.0
      ],
      "type": "VEC3"
    },
    {
      "bufferView": 0,
      "byteOffset": 24156,
      "componentType": 5125,
      "count": 948,
      "type": "SCALAR"
    },
    {
      "bufferView": 1,
      "byteOffset": 37848,
      "componentType": 5126,
      "count": 3125,
      "max": [
        73.4280014038086,
        -0.0,
        -27.399999618530273
      ],
      "min": [
        30.57200050354004,
        -27.489200592041016,
        -46.599998474121094
      ],
      "type": "VEC3"
    },
    {
      "bufferView": 1,
      "byteOffset": 75348,
      "componentType": 5126,
      "count": 3125,
      "max": [
        1.0,
        0.9999999403953552,
        0.9999476671218872
      ],
      "min": [
        -1.0,
        -0.9999637007713318,
        -0.9997332692146301
      ],
      "type": "VEC3"
    },
    {
      "bufferView": 0,
      "byteOffset": 27948,
      "componentType": 5125,
      "count": 15453,
      "type": "SCALAR"
    },
    {
      "bufferView": 1,
      "byteOffset": 112848,
      "componentType": 5126,
      "count": 1535,
      "max": [
        63.3380012512207,
        -24.0,
        -28.3080997467041
      ],
      "min": [
        39.72529983520508,
        -54.0,
        -44.507301330566406
      ],
      "type": "VEC3"
    },
    {
      "bufferView": 1,
      "byteOffset": 131268,
      "componentType": 5126,
      "count": 1535,
      "max": [
        0.9753999710083008,
        1.0,
        0.9892389178276062
      ],
      "min": [
        -0.9753258228302002,
        -1.0,
        -0.9886320233345032
      ],
      "type": "VEC3"
    },
    {
      "bufferView": 0,
      "byteOffset": 89760,
      "componentType": 5125,
      "count": 5790,
      "type": "SCALAR"
    },
    {
      "bufferView": 1,
      "byteOffset": 149688,
      "componentType": 5126,
      "count": 840,
      "max": [
        60.9900016784668,
        -34.0281982421875,
        -37.81700134277344
      ],
      "min": [
        41.0,
        -50.9900016784668,
        -41.0
      ],
      "type": "VEC3"
    },
    {
      "bufferView": 1,
      "byteOffset": 159768,
      "componentType": 5126,
      "count": 840,
      "max": [
        0.9998667240142822,
        0.6715630292892456,
        1.0
      ],
      "min": [
        -1.0,
        -0.9999994039535522,
        -1.0
      ],
      "type": "VEC3"
    },
    {
      "bufferView": 0,
      "byteOffset": 112920,
      "componentType": 5125,
      "count": 2820,
      "type": "SCALAR"
    },
    {
      "bufferView": 1,
      "byteOffset": 169848,
      "componentType": 5126,
      "count": 296,
      "max": [
        60.0,
        -37.0,
        -44.13779830932617
      ],
      "min": [
        45.0,
        -40.0,
        -47.0
      ],
      "type": "VEC3"
    },
    {
      "bufferView": 1,
      "byteOffset": 173400,
      "componentType": 5126,
      "count": 296,
      "max": [
        0.9988681674003601,
        1.0,
        1.0
      ],
      "min": [
        -0.9988681674003601,
        -0.9999999403953552,
        -1.0
      ],
      "type": "VEC3"
    },
    {
      "bufferView": 0,
      "byteOffset": 124200,
      "componentType": 5125,
      "count": 846,
      "type": "SCALAR"
    }
  ],
  "asset": {
    "extras": {
      "author": "JAZZY_123_2018 (https://sketchfab.com/JAZZY_123_2018)",
      "license": "CC-BY-4.0 (http://creativecommons.org/licenses/by/4.0/)",
      "source": "https://sketchfab.com/3d-models/amazing-vihelmo-robo-16af17542ee74a0d9586663dd85a9e11",
      "title": "Amazing Vihelmo- Robo"
    },
    "generator": "Sketchfab-11.90.0",
    "version": "2.0"
  },
  "bufferViews": [
    {
      "buffer": 0,
      "byteLength": 127584,
      "name": "floatBufferViews",
      "target": 34963
    },
    {
      "buffer": 0,
      "byteLength": 176952,
      "byteOffset": 127584,
      "byteStride": 12,
      "name": "floatBufferViews",
      "target": 34962
    }
  ],
  "buffers": [
    {
      "byteLength": 304536,
      "uri": "scene.bin"
    }
  ],
  "materials": [
    {
      "doubleSided": true,
      "name": "color_16448250",
      "pbrMetallicRoughness": {
        "baseColorFactor": [
          0.980392,
          0.980392,
          0.980392,
          1.0
        ],
        "metallicFactor": 0.0
      }
    },
    {
      "doubleSided": true,
      "name": "color_1855578",
      "pbrMetallicRoughness": {
        "baseColorFactor": [
          0.109804,
          0.313726,
          0.352941,
          1.0
        ],
        "metallicFactor": 0.0
      }
    },
    {
      "doubleSided": true,
      "name": "color_2829873",
      "pbrMetallicRoughness": {
        "baseColorFactor": [
          0.168627,
          0.180392,
          0.192157,
          1.0
        ],
        "metallicFactor": 0.0
      }
    },
    {
      "doubleSided": true,
      "name": "color_3888547",
      "pbrMetallicRoughness": {
        "baseColorFactor": [
          0.231373,
          0.333333,
          0.639216,
          1.0
        ],
        "metallicFactor": 0.0
      }
    },
    {
      "doubleSided": true,
      "name": "color_40919",
      "pbrMetallicRoughness": {
        "baseColorFactor": [
          0.0,
          0.623529,
          0.843137,
          1.0
        ],
        "metallicFactor": 0.0
      }
    },
    {
      "doubleSided": true,
      "name": "color_8273816",
      "pbrMetallicRoughness": {
        "baseColorFactor": [
          0.494118,
          0.247059,
          0.596078,
          1.0
        ],
        "metallicFactor": 0.0
      }
    }
  ],
  "meshes": [
    {
      "name": "Object_0",
      "primitives": [
        {
          "attributes": {
            "NORMAL": 1,
            "POSITION": 0
          },
          "indices": 2,
          "material": 0,
          "mode": 4
        }
      ]
    },
    {
      "name": "Object_1",
      "primitives": [
        {
          "attributes": {
            "NORMAL": 4,
            "POSITION": 3
          },
          "indices": 5,
          "material": 1,
          "mode": 4
        }
      ]
    },
    {
      "name": "Object_2",
      "primitives": [
        {
          "attributes": {
            "NORMAL": 7,
            "POSITION": 6
          },
          "indices": 8,
          "material": 2,
          "mode": 4
        }
      ]
    },
    {
      "name": "Object_3",
      "primitives": [
        {
          "attributes": {
            "NORMAL": 10,
            "POSITION": 9
          },
          "indices": 11,
          "material": 3,
          "mode": 4
        }
      ]
    },
    {
      "name": "Object_4",
      "primitives": [
        {
          "attributes": {
            "NORMAL": 13,
            "POSITION": 12
          },
          "indices": 14,
          "material": 4,
          "mode": 4
        }
      ]
    },
    {
      "name": "Object_5",
      "primitives": [
        {
          "attributes": {
            "NORMAL": 16,
            "POSITION": 15
          },
          "indices": 17,
          "material": 5,
          "mode": 4
        }
      ]
    }
  ],
  "nodes": [
    {
      "children": [
        1
      ],
      "matrix": [
        1.0,
        0.0,
        0.0,
        0.0,
        0.0,
        2.220446049250313e-16,
        -1.0,
        0.0,
        0.0,
        1.0,
        2.220446049250313e-16,
        0.0,
        0.0,
        0.0,
        0.0,
        1.0
      ],
      "name": "Sketchfab_model"
    },
    {
      "children": [
        2,
        3,
        4,
        5,
        6,
        7
      ],
      "name": "tinker.obj.cleaner.materialmerger.gles"
    },
    {
      "mesh": 0,
      "name": "Object_2"
    },
    {
      "mesh": 1,
      "name": "Object_3"
    },
    {
      "mesh": 2,
      "name": "Object_4"
    },
    {
      "mesh": 3,
      "name": "Object_5"
    },
    {
      "mesh": 4,
      "name": "Object_6"
    },
    {
      "mesh": 5,
      "name": "Object_7"
    }
  ],
  "scene": 0,
  "scenes": [
    {
      "name": "Sketchfab_Scene",
      "nodes": [
        0
      ]
    }
  ]
}
