{
  "accessors": [
    {
      "bufferView": 1,
      "componentType": 5126,
      "count": 3034,
      "max": [
        31.0,
        -30.0,
        67.0
      ],
      "min": [
        7.693299770355225,
        -54.237998962402344,
        -9.690899848937988
      ],
      "type": "VEC3"
    },
    {
      "bufferView": 1,
      "byteOffset": 36408,
      "componentType": 5126,
      "count": 3034,
      "max": [
        0.9997625350952148,
        1.0,
        0.9958015084266663
      ],
      "min": [
        -0.9996128678321838,
        -0.999883770942688,
        -0.9963126182556152
      ],
      "type": "VEC3"
    },
    {
      "bufferView": 0,
      "componentType": 5125,
      "count": 13356,
      "type": "SCALAR"
    },
    {
      "bufferView": 1,
      "byteOffset": 72816,
      "componentType": 5126,
      "count": 4247,
      "max": [
        39.34299850463867,
        -0.0,
        3.5
      ],
      "min": [
        -13.343000411987305,
        -63.57899856567383,
        -27.5
      ],
      "type": "VEC3"
    },
    {
      "bufferView": 1,
      "byteOffset": 123780,
      "componentType": 5126,
      "count": 4247,
      "max": [
        1.0,
        1.0,
        1.0
      ],
      "min": [
        -1.0,
        -1.0,
        -1.0
      ],
      "type": "VEC3"
    },
    {
      "bufferView": 0,
      "byteOffset": 53424,
      "componentType": 5125,
      "count": 18663,
      "type": "SCALAR"
    },
    {
      "bufferView": 1,
      "byteOffset": 174744,
      "componentType": 5126,
      "count": 767,
      "max": [
        21.20800018310547,
        -26.0,
        -28.0
      ],
      "min": [
        4.0,
        -77.0,
        -42.130001068115234
      ],
      "type": "VEC3"
    },
    {
      "bufferView": 1,
      "byteOffset": 183948,
      "componentType": 5126,
      "count": 767,
      "max": [
        0.9985542297363281,
        0.9923610687255859,
        0.9999759197235107
      ],
      "min": [
        -0.9994107484817505,
        -0.9906251430511475,
        -0.9999830722808838
      ],
      "type": "VEC3"
    },
    {
      "bufferView": 0,
      "byteOffset": 128076,
      "componentType": 5125,
      "count": 4296,
      "type": "SCALAR"
    },
    {
      "bufferView": 1,
      "byteOffset": 193152,
      "componentType": 5126,
      "count": 1216,
      "max": [
        34.0,
        -0.0,
        -7.0
      ],
      "min": [
        -1.0,
        -58.10940170288086,
        -30.0
      ],
      "type": "VEC3"
    },
    {
      "bufferView": 1,
      "byteOffset": 207744,
      "componentType": 5126,
      "count": 1216,
      "max": [
        0.9999240040779114,
        0.9998374581336975,
        0.9993638396263123
      ],
      "min": [
        -0.999115526676178,
        -0.6588897705078125,
        -0.9999856352806091
      ],
      "type": "VEC3"
    },
    {
      "bufferView": 0,
      "byteOffset": 145260,
      "componentType": 5125,
      "count": 4413,
      "type": "SCALAR"
    }
  ],
  "asset": {
    "extras": {
      "author": "JAZZY_123_2018 (https://sketchfab.com/JAZZY_123_2018)",
      "license": "CC-BY-4.0 (http://creativecommons.org/licenses/by/4.0/)",
      "source": "https://sketchfab.com/3d-models/frantic-jaagub-borwo-93256b18e6714d35b61622b537f806bb",
      "title": "Frantic Jaagub- Borwo"
    },
    "generator": "Sketchfab-11.90.0",
    "version": "2.0"
  },
  "bufferViews": [
    {
      "buffer": 0,
      "byteLength": 162912,
      "name": "floatBufferViews",
      "target": 34963
    },
    {
      "buffer": 0,
      "byteLength": 222336,
      "byteOffset": 162912,
      "byteStride": 12,
      "name": "floatBufferViews",
      "target": 34962
    }
  ],
  "buffers": [
    {
      "byteLength": 385248,
      "uri": "scene.bin"
    }
  ],
  "materials": [
    {
      "doubleSided": true,
      "name": "color_15277357",
      "pbrMetallicRoughness": {
        "baseColorFactor": [
          0.913725,
          0.113725,
          0.176471,
          1.0
        ],
        "metallicFactor": 0.0
      }
    },
    {
      "doubleSided": true,
      "name": "color_2829873",
      "pbrMetallicRoughness": {
        "baseColorFactor": [
          0.168627,
          0.180392,
          0.192157,
          1.0
        ],
        "metallicFactor": 0.0
      }
    },
    {
      "doubleSided": true,
      "name": "color_4634441",
      "pbrMetallicRoughness": {
        "baseColorFactor": [
          0.27451,
          0.717647,
          0.286275,
          1.0
        ],
        "metallicFactor": 0.0
      }
    },
    {
      "doubleSided": true,
      "name": "color_6383466",
      "pbrMetallicRoughness": {
        "baseColorFactor": [
          0.380392,
          0.403922,
          0.415686,
          1.0
        ],
        "metallicFactor": 0.0
      }
    }
  ],
  "meshes": [
    {
      "name": "Object_0",
      "primitives": [
        {
          "attributes": {
            "NORMAL": 1,
            "POSITION": 0
          },
          "indices": 2,
          "material": 0,
          "mode": 4
        }
      ]
    },
    {
      "name": "Object_1",
      "primitives": [
        {
          "attributes": {
            "NORMAL": 4,
            "POSITION": 3
          },
          "indices": 5,
          "material": 1,
          "mode": 4
        }
      ]
    },
    {
      "name": "Object_2",
      "primitives": [
        {
          "attributes": {
            "NORMAL": 7,
            "POSITION": 6
          },
          "indices": 8,
          "material": 2,
          "mode": 4
        }
      ]
    },
    {
      "name": "Object_3",
      "primitives": [
        {
          "attributes": {
            "NORMAL": 10,
            "POSITION": 9
          },
          "indices": 11,
          "material": 3,
          "mode": 4
        }
      ]
    }
  ],
  "nodes": [
    {
      "children": [
        1
      ],
      "matrix": [
        1.0,
        0.0,
        0.0,
        0.0,
        0.0,
        2.220446049250313e-16,
        -1.0,
        0.0,
        0.0,
        1.0,
        2.220446049250313e-16,
        0.0,
        0.0,
        0.0,
        0.0,
        1.0
      ],
      "name": "Sketchfab_model"
    },
    {
      "children": [
        2,
        3,
        4,
        5
      ],
      "name": "tinker.obj.cleaner.materialmerger.gles"
    },
    {
      "mesh": 0,
      "name": "Object_2"
    },
    {
      "mesh": 1,
      "name": "Object_3"
    },
    {
      "mesh": 2,
      "name": "Object_4"
    },
    {
      "mesh": 3,
      "name": "Object_5"
    }
  ],
  "scene": 0,
  "scenes": [
    {
      "name": "Sketchfab_Scene",
      "nodes": [
        0
      ]
    }
  ]
}
